PathFileType	4	(X/Y/Z)	C:\Users\Basilio\Documents\Thesis Gigler\squatting_fais\c3dfiles\076\SJ_pre4\markers_experimental.trc
DataRate	CameraRate	NumFrames	NumMarkers	Units	OrigDataRate	OrigDataStartFrame	OrigNumFrames
200.000000	200.000000	4	61	mm	200.000000	699	1864
Frame#	Time	FHD			LBHD			RBHD			C7			T10			CLAV			LSHO			LUUPA			LMUPA			LDUPA			LLEP			LMEP			LRAD			LUL			LRFIN			RSHO			RUPA1			RMUPA			RDUPA			RLEP			RMEP			RRAD			RUL			RUFIN			LASI			RASI			USACR			LSACR			RSACR			LTHI1			LTHI2			LTHI3			LTHI4			LLFC			LMFC			LTIB1			LTIB2			LTIB3			LTIB4			LLMAL			LMMAL			LHEE			LMT1			LMT2			LMT5			RTHI			RTHI2			RTHI3			RTHI4			RLFC			RMFC			RTIB1			RTIB2			RTIB3			RTIB4			RLMAL			RMMAL			RHEE			RMT1			RMT2			RMT5			
		X1	Y1	Z1	X2	Y2	Z2	X3	Y3	Z3	X4	Y4	Z4	X5	Y5	Z5	X6	Y6	Z6	X7	Y7	Z7	X8	Y8	Z8	X9	Y9	Z9	X10	Y10	Z10	X11	Y11	Z11	X12	Y12	Z12	X13	Y13	Z13	X14	Y14	Z14	X15	Y15	Z15	X16	Y16	Z16	X17	Y17	Z17	X18	Y18	Z18	X19	Y19	Z19	X20	Y20	Z20	X21	Y21	Z21	X22	Y22	Z22	X23	Y23	Z23	X24	Y24	Z24	X25	Y25	Z25	X26	Y26	Z26	X27	Y27	Z27	X28	Y28	Z28	X29	Y29	Z29	X30	Y30	Z30	X31	Y31	Z31	X32	Y32	Z32	X33	Y33	Z33	X34	Y34	Z34	X35	Y35	Z35	X36	Y36	Z36	X37	Y37	Z37	X38	Y38	Z38	X39	Y39	Z39	X40	Y40	Z40	X41	Y41	Z41	X42	Y42	Z42	X43	Y43	Z43	X44	Y44	Z44	X45	Y45	Z45	X46	Y46	Z46	X47	Y47	Z47	X48	Y48	Z48	X49	Y49	Z49	X50	Y50	Z50	X51	Y51	Z51	X52	Y52	Z52	X53	Y53	Z53	X54	Y54	Z54	X55	Y55	Z55	X56	Y56	Z56	X57	Y57	Z57	X58	Y58	Z58	X59	Y59	Z59	X60	Y60	Z60	X61	Y61	Z61	

700	3.495	50.93394851684572	1115.197509765625	-884.907165527344	-98.56369781494143	1080.979370117188	-986.8582763671877	-88.50197601318361	1079.892333984375	-835.4803466796877	-169.6812133789063	1031.172241210938	-917.5080566406252	-431.2404174804689	861.200866699219	-933.6447753906252	-123.4876327514649	882.4611816406252	-913.6826171875002	-125.8717803955078	936.5098266601565	-1081.287719726563	-224.9783172607422	853.764831542969	-1228.931762695313	-252.9468841552735	816.6901855468752	-1220.609375	-263.7235412597657	829.0531005859377	-1279.910278320313	-311.1485595703126	811.8713378906252	-1313.716186523438	-369.9441528320313	876.1756591796877	-1294.514892578125	-472.5320739746095	745.3189086914064	-1142.494873046875	-459.8713378906251	684.8770141601564	-1165.579833984375	-430.6606750488282	730.2700195312501	-1093.863891601563	-153.7626953125	935.2728271484377	-754.1521606445314	-273.3882751464844	880.2246093750002	-609.6546630859376	-286.5431213378907	831.8900146484377	-611.6940917968751	-322.7312927246094	851.119812011719	-567.1016845703126	-376.7688293457032	804.9851074218752	-546.2597656250001	-436.0415039062501	859.3899536132815	-586.2260131835939	-495.2327880859376	719.4400634765626	-739.1124877929689	-444.6683044433595	709.1027221679689	-764.6654663085939	-476.7817687988282	660.0004272460939	-710.4748535156251	-422.1938476562501	652.8342895507814	-1042.411743164063	-425.0677185058595	636.7322998046876	-843.485778808594	-521.8414916992189	790.130554199219	-936.0144042968752	-547.9663085937501	776.4935302734377	-966.0103149414065	-551.2719726562501	772.7273559570315	-908.6647949218752	-476.9386596679689	615.0150146484376	-1146.478759765625	-395.591766357422	592.1060791015626	-1144.365478515625	-368.9851989746094	620.9246826171876	-1115.071655273438	-372.5033569335938	536.1322631835939	-1153.40625	-255.3636474609376	431.2827148437501	-1141.605712890625	-243.0784912109376	428.5206298828126	-1033.774536132813	-247.329574584961	292.2815246582032	-1065.337036132813	-279.5302734375001	241.7826232910157	-1130.42333984375	-255.3728637695313	240.7551879882813	-1090.986694335938	-300.3482055664063	177.6906280517578	-1056.971801757813	-387.1156616210939	77.62816619873048	-1114.933959960938	-366.6049499511719	88.29103088378908	-1029.560913085938	-449.3839111328126	42.71032714843751	-1068.85205078125	-237.947006225586	53.6382179260254	-1049.672729492188	-232.7977600097657	54.25465774536134	-1088.174438476563	-250.5330200195313	43.49029159545899	-1139.252563476563	-419.6486206054689	545.5883789062501	-721.6627197265626	-351.6071166992188	544.4891967773439	-712.1320190429689	-331.8335571289063	570.3851318359376	-725.8140869140626	-306.8661499023438	471.5976867675782	-715.2636718750001	-265.1932983398438	436.1320800781251	-716.8076782226564	-240.706283569336	435.7479553222657	-819.0062255859377	-233.3192443847657	302.2947692871094	-735.7340087890626	-326.9136047363282	246.080551147461	-718.2742919921876	-283.5208435058594	231.5665283203126	-730.3989868164064	-284.8088989257813	187.5190887451172	-769.0627441406252	-387.6468811035157	76.90612030029298	-747.6856079101564	-360.9443359375001	89.56262207031251	-829.3872070312502	-444.2868041992189	50.06633377075197	-799.633972167969	-235.4652252197266	52.22348403930665	-799.6363525390627	-235.749984741211	56.64576339721681	-754.5526733398439	-265.7944641113282	35.81395339965821	-702.9572753906251	
701	3.5	50.98626708984376	1115.154663085938	-884.8206787109377	-98.42427062988284	1080.602294921875	-986.958435058594	-88.43875122070314	1079.64892578125	-835.3336181640627	-169.5970458984375	1030.910522460938	-917.4205322265627	-431.0003356933595	860.9902954101565	-933.5383911132815	-123.4109268188477	882.2483520507815	-913.6182861328127	-125.7818298339844	936.3220825195315	-1081.203857421875	-224.9055786132813	853.581481933594	-1228.897094726563	-252.7695465087891	816.5366821289065	-1220.501586914063	-263.7870788574219	828.8657836914065	-1279.778442382813	-311.1379394531251	811.7344360351565	-1313.663696289063	-369.8647460937501	876.0723876953127	-1294.493774414063	-473.017059326172	745.2455444335939	-1142.323974609375	-459.9839172363282	684.7551269531251	-1165.615478515625	-430.6697998046876	730.1841430664064	-1093.81787109375	-153.6797027587891	934.9422607421877	-754.0550537109376	-273.2798767089844	879.8232421875002	-609.5382690429689	-286.5040588378907	831.443298339844	-611.6279296875001	-322.6135253906251	850.7297973632815	-567.0195922851564	-376.6434936523438	804.649841308594	-546.2557373046876	-435.866668701172	859.1250000000002	-586.2124633789064	-495.1346435546876	719.2067260742189	-739.0848999023439	-444.5547790527345	708.8309936523439	-764.7600708007814	-476.6553344726564	659.7345581054689	-710.5231933593751	-422.2577514648439	652.6576538085939	-1042.662353515625	-425.3818969726564	635.8981933593751	-843.8073730468752	-521.6946411132814	789.8278808593752	-935.9360961914065	-547.7998657226564	776.3527832031252	-966.0335693359377	-551.1969604492189	772.3829345703127	-908.5872802734377	-476.8873291015626	614.9131469726564	-1146.578979492188	-396.2943420410157	592.3748779296876	-1144.825561523438	-368.9845581054688	620.7845458984376	-1115.238647460938	-372.4772033691407	536.0718994140626	-1153.681884765625	-255.2124023437501	431.2717285156251	-1141.9482421875	-242.9148864746094	428.486785888672	-1034.068725585938	-247.2493743896485	292.2251892089844	-1065.546142578125	-279.3381652832032	241.7627105712891	-1130.704223632813	-255.2902832031251	240.7265930175782	-1091.143188476563	-300.3167724609376	177.6875305175782	-1057.104858398438	-387.1155090332032	77.63559722900392	-1114.945068359375	-366.6251220703126	88.3249969482422	-1029.546508789063	-449.3641052246095	42.6947364807129	-1068.831176757813	-237.9203491210938	53.5429153442383	-1049.776611328125	-232.8166961669922	54.2493019104004	-1088.290405273438	-250.4841918945313	43.44121932983399	-1139.240356445313	-419.4991760253907	545.4165039062501	-721.6494140625001	-351.4818420410157	544.3402709960939	-712.1661987304689	-331.7064514160157	570.2639160156251	-725.9000244140626	-306.7135009765626	471.4799194335939	-715.2393188476564	-265.0354614257813	436.0490112304689	-716.8290405273439	-240.5418853759766	435.6665649414064	-819.0689697265627	-233.201889038086	302.2488098144532	-735.7491455078126	-326.8301696777344	246.0404510498047	-718.2760009765626	-283.4537963867188	231.5501403808594	-730.4155273437501	-284.7166442871094	187.491195678711	-769.1242675781252	-387.6252441406251	76.8831024169922	-747.6981811523439	-361.0613098144532	89.61744689941408	-829.4345703125002	-444.3975219726564	50.06842422485353	-799.5947265625002	-235.4617156982422	52.22851943969728	-799.5964965820315	-235.7107391357422	56.70198440551759	-754.5823974609376	-265.7848205566407	35.8105697631836	-702.9484863281251	
702	3.505	51.02138519287111	1115.117797851563	-884.7131347656252	-98.36177062988284	1080.411254882813	-986.8626708984377	-88.21246337890626	1079.400634765625	-834.6676025390627	-169.5835266113282	1030.59033203125	-917.3039550781252	-430.953094482422	860.8242187500002	-933.4042968750002	-123.2467498779297	882.0125732421877	-913.5195312500002	-125.8992156982422	936.2565917968752	-1081.175170898438	-224.8386840820313	853.4566040039065	-1228.917846679688	-252.7358856201172	816.4418945312502	-1220.41259765625	-263.8940429687501	828.6663818359377	-1279.677490234375	-311.0388793945313	811.6089477539065	-1313.623046875	-369.8762817382813	875.956970214844	-1294.374755859375	-472.9711914062501	745.1315307617189	-1142.274291992188	-459.9610595703126	684.6218872070314	-1165.599365234375	-430.6744995117189	730.0751342773439	-1093.76318359375	-153.5489501953125	934.639587402344	-753.9460449218751	-273.1456909179688	879.4885253906252	-609.4736938476564	-286.3527221679688	831.1704101562502	-611.4569702148439	-322.5612487792969	850.4326782226565	-566.9119873046876	-376.5579528808594	804.3781738281252	-546.2106323242189	-435.7557373046876	858.9295043945315	-586.2225952148439	-495.0603332519532	718.9351196289064	-739.0862426757814	-444.4179687500001	708.5391235351564	-764.7902221679689	-476.5279235839845	659.4236450195314	-710.6079711914064	-422.3476867675782	652.3844604492189	-1042.702392578125	-425.4093322753907	635.5050659179689	-843.8704223632815	-521.5475463867189	789.6192016601565	-935.861022949219	-547.7037963867189	776.1699218750002	-965.9417114257815	-551.0831298828126	772.1646728515627	-908.5014648437502	-476.852752685547	614.8700561523439	-1146.665283203125	-395.6638183593751	592.0880737304689	-1144.784545898438	-369.0516357421876	620.7129516601564	-1115.442626953125	-372.3082580566407	536.0223999023439	-1153.916259765625	-255.1574707031251	431.2155761718751	-1142.1142578125	-242.7910461425782	428.4227905273439	-1034.367065429688	-247.1192169189454	292.2130737304688	-1065.756469726563	-278.5621337890626	241.7686767578126	-1130.6328125	-255.2315368652344	240.6857147216797	-1091.247680664063	-300.2469177246094	177.7015533447266	-1057.17529296875	-387.1216430664064	77.59946441650392	-1114.986572265625	-366.5819091796876	88.32877349853517	-1029.608764648438	-449.413543701172	42.74029159545899	-1068.808715820313	-237.9464416503907	53.54590988159181	-1049.79638671875	-232.872055053711	54.3215675354004	-1088.281372070313	-250.5148925781251	43.43897247314454	-1139.256225585938	-419.3538818359376	545.3390502929689	-721.7230834960939	-351.3972473144532	544.1340942382814	-712.2381591796876	-331.6266784667969	570.1813964843751	-725.9095458984376	-306.5391235351563	471.4356994628907	-715.3272705078126	-264.9161987304688	435.9424743652345	-716.8974609375001	-240.2170867919922	435.618865966797	-819.1157836914065	-233.0252532958985	302.1784057617188	-735.7864379882814	-326.7489318847657	246.0213165283204	-718.2957153320314	-283.4294738769532	231.5545349121094	-730.3552856445314	-284.6512756347657	187.4111938476563	-769.1403808593752	-387.5913696289064	76.89048004150392	-747.7108764648439	-360.9300842285157	89.5716018676758	-829.4071044921877	-444.4219055175782	50.0838966369629	-799.6286621093752	-235.4121704101563	52.20587539672853	-799.600280761719	-235.7413787841797	56.68202972412111	-754.5581665039064	-265.8016357421876	35.82124710083009	-702.9725341796876	
703	3.51	51.04188156127931	1115.135620117188	-884.6162109375002	-98.42678070068362	1080.214721679688	-986.859558105469	-88.16040802001955	1079.211669921875	-834.534851074219	-169.4540252685547	1030.320922851563	-917.140808105469	-430.7868957519532	860.5584106445315	-933.288269042969	-123.1162033081055	881.8630981445315	-913.538513183594	-125.7546997070313	936.1194458007815	-1081.055541992188	-224.6486968994141	853.3616943359377	-1228.86181640625	-252.7308807373047	816.3448486328127	-1220.359497070313	-263.7169189453126	828.5291748046877	-1279.573974609375	-311.0463562011719	811.501159667969	-1313.615478515625	-370.2674865722657	875.299255371094	-1294.123413085938	-473.1484680175782	745.0260620117189	-1142.166015625	-460.0770263671876	684.5487670898439	-1165.604858398438	-430.6104125976564	729.9807128906251	-1093.745727539063	-153.341552734375	934.3382568359377	-753.8190307617189	-272.9892272949219	879.2837524414065	-609.4150390625001	-286.1951599121094	830.8397216796877	-611.4094238281251	-322.4809875488282	850.0419921875002	-566.8102416992189	-376.4535522460938	803.9915771484377	-546.0968627929689	-435.7178955078126	858.6277465820315	-586.1228027343751	-494.8602294921876	718.7178344726564	-739.0841064453126	-444.3999328613282	708.2820434570314	-764.8322753906251	-476.4578247070314	659.1665039062501	-710.6679687500001	-422.1365051269532	652.2786254882814	-1042.634399414063	-425.1937561035157	635.3769531250001	-843.8176269531252	-521.3822631835939	789.4604492187502	-935.8120117187502	-547.5750732421876	775.957946777344	-965.8682861328127	-550.9748535156251	771.928649902344	-908.403747558594	-476.9426574707032	614.8141479492189	-1146.802490234375	-396.2232360839845	592.2494506835939	-1145.146484375	-369.0116882324219	620.5841064453126	-1115.602416992188	-372.4042968750001	535.9605712890626	-1154.145874023438	-255.0355682373047	431.1809387207032	-1142.347900390625	-242.6632232666016	428.4082336425782	-1034.609252929688	-247.0313110351563	292.2334899902344	-1066.0390625	-279.2778625488282	241.5865631103516	-1130.97705078125	-255.1562652587891	240.6286163330079	-1091.484252929688	-300.2042541503907	177.7045440673828	-1057.347900390625	-387.1390686035157	77.58216094970705	-1115.020629882813	-366.5537109375001	88.36580657958986	-1029.578979492188	-449.4383239746095	42.76116180419923	-1068.814086914063	-237.9301910400391	53.58682250976564	-1049.778076171875	-232.8427886962891	54.29354095458986	-1088.26953125	-250.5214996337891	43.4031105041504	-1139.256591796875	-419.2424316406251	545.2200317382814	-721.7784423828126	-351.2666931152344	544.0104370117189	-712.3192138671876	-331.4744262695313	570.0555419921876	-725.9561157226564	-306.3982849121094	471.3002014160157	-715.3228149414064	-264.7475585937501	435.8858947753907	-716.8811645507814	-240.141098022461	435.503875732422	-819.1623535156252	-232.9199371337891	302.0535888671876	-735.7605590820314	-326.6334228515626	245.9567413330079	-718.3298339843751	-283.2427978515626	231.4060058593751	-730.4509277343751	-284.5522155761719	187.3721008300782	-769.1358032226565	-387.5935668945314	76.88962554931642	-747.7326660156251	-361.1319580078126	89.62617492675783	-829.446960449219	-444.4085388183595	50.1168670654297	-799.612243652344	-235.4618072509766	52.20874023437501	-799.6253662109377	-235.7327728271485	56.70722961425783	-754.6016845703126	-265.7612915039063	35.83163833618165	-702.9675903320314	
